<?xml version="1.0" standalone="no"?>
<!DOCTYPE svg PUBLIC "-//W3C//DTD SVG 20010904//EN" "http://www.w3.org/TR/2001/REC-SVG-20010904/DTD/svg10.dtd">
<!-- Created using Karbon, part of Calligra: http://www.calligra.org/karbon -->
<svg xmlns="http://www.w3.org/2000/svg" xmlns:xlink="http://www.w3.org/1999/xlink" width="612.001pt" height="792.001pt">
<defs/>
<g id="layer0">
  <path id="shape0" transform="translate(193.093, 82.312)" fill="#1793d1" d="M189.407 0.000532707C172.543 41.3404 162.304 68.4178 143.535 108.531C155.041 120.73 169.188 134.888 192.135 150.933C167.466 140.783 150.649 130.62 138.078 120.043C114.052 170.176 76.3842 241.565 0 378.814C60.0183 344.164 106.553 322.785 149.915 314.629C148.057 306.632 147.068 297.943 147.14 288.917L147.186 287.022C148.14 248.562 168.152 218.985 191.858 220.992C215.557 222.997 234.011 255.818 233.059 294.286C232.876 301.53 232.035 308.491 230.608 314.954C273.503 323.347 319.594 344.627 378.813 378.814C367.135 357.317 356.676 337.944 346.72 319.482C331.041 307.331 314.694 291.522 281.334 274.397C304.264 280.358 320.696 287.247 333.492 294.93C232.289 106.5 224.109 81.4454 189.407 0.000532707L189.407 0Z"/>
  <path id="shape2" transform="translate(164.341, 470.08)" fill="#1d99f3" d="M254.396 0L177.662 6.92935L177.662 304.984L253.584 294.202L253.584 167.125L355.637 308.071L435.64 284.191L331.142 148.642L436.461 20.7943L354.825 3.0888L253.585 130.931ZM80.4605 72.6311C79.594 72.717 78.7568 73.0774 78.1063 73.6936L47.9906 102.098C46.7241 103.295 46.4856 105.153 47.4192 106.603L82.6787 161.384C76.4247 171.303 71.4127 181.995 67.8303 193.275L3.09863 205.976C1.29766 206.329 0 207.834 0 209.577L0 249.748C0 251.447 1.23214 252.919 2.96755 253.315L65.7964 267.802C69.1469 280.866 74.3386 293.251 81.2005 304.634L44.8336 356.948C43.8187 358.409 44.0308 360.335 45.3419 361.565L75.4473 389.969C76.7134 391.161 78.6898 391.394 80.2343 390.519L137.222 357.871C148.416 363.963 160.487 368.759 173.246 372.012L186.544 432.317C186.917 434.024 188.519 435.238 190.355 435.238L232.945 435.238C234.735 435.238 236.296 434.087 236.726 432.431L252.386 372.001C265.538 368.652 277.977 363.661 289.445 357.291L345.603 392.026C347.148 392.985 349.19 392.794 350.501 391.558L380.616 363.153C381.89 361.952 382.118 360.094 381.183 358.648L360.682 326.777L354.048 328.755C353.082 329.042 352.028 328.703 351.459 327.909C351.459 327.909 338.382 309.852 321.494 286.535C301.305 323.807 260.232 349.34 212.801 349.34C145.41 349.34 90.7767 297.8 90.7767 234.228C90.7767 187.462 120.347 147.242 162.796 129.225L162.796 99.5284C155.07 102.079 147.601 105.152 140.508 108.798C140.502 108.793 140.498 108.78 140.476 108.764L82.9969 73.2011C82.2229 72.7241 81.3256 72.5333 80.4593 72.6173Z"/>
 </g>
</svg>
